<svg width="562" height="222" viewBox="0 0 562 222" fill="none" xmlns="http://www.w3.org/2000/svg">
<g clip-path="url(#clip0_288_1130)">
<path fill-rule="evenodd" clip-rule="evenodd" d="M165.818 4.10781C166.429 2.86971 165.921 1.37062 164.683 0.759504C163.445 0.148388 161.946 0.656661 161.335 1.89477L138.575 48.0062C103.285 27.9826 57.6372 33.007 27.5501 63.094C-8.57335 99.2175 -8.57335 157.785 27.5501 193.909C63.6736 230.032 122.241 230.032 158.365 193.909C188.544 163.73 193.507 117.895 173.268 82.5611L219.287 59.8468C220.525 59.2357 221.033 57.7366 220.422 56.4985C219.811 55.2604 218.312 54.7522 217.074 55.3633L174.875 76.1921C176.399 72.9047 177.087 69.325 176.938 65.774L197.075 51.2016C198.193 50.3922 198.444 48.8292 197.635 47.7107C196.825 46.5921 195.262 46.3415 194.144 47.151L176.016 60.2689C175.209 57.5648 173.883 54.9826 172.038 52.679L191.232 33.4852C192.208 32.5089 192.208 30.926 191.232 29.9496C190.256 28.9733 188.673 28.9733 187.696 29.9496L168.503 49.1435C166.199 47.2984 163.617 45.9724 160.913 45.1653L174.031 27.0379C174.84 25.9193 174.589 24.3564 173.471 23.5469C172.352 22.7375 170.789 22.9881 169.98 24.1066L155.408 44.244C151.856 44.0948 148.277 44.7823 144.989 46.3064L165.818 4.10781ZM166.08 86.1094L164.255 87.0099C164.14 87.0667 164.023 87.1138 163.904 87.1516C155.587 90.997 145.405 89.4911 138.548 82.6339C131.69 75.7768 130.185 65.5948 134.03 57.2773C134.068 57.1587 134.115 57.0413 134.172 56.9263L135.027 55.193C102.736 36.6341 60.7996 41.1583 33.207 68.7509C0.207691 101.75 0.207691 155.253 33.207 188.252C66.2063 221.251 119.709 221.251 152.708 188.252C180.393 160.567 184.854 118.443 166.08 86.1094ZM142.083 54.3497C148.917 47.5155 159.998 47.5155 166.832 54.3497C173.666 61.1838 173.666 72.2642 166.832 79.0984C159.998 85.9326 148.917 85.9326 142.083 79.0984C135.249 72.2642 135.249 61.1838 142.083 54.3497Z" fill="white"/>
<path d="M365.829 30.7959H359.141L352.741 13.6119C352.954 15.2973 353.114 16.7906 353.221 18.0919C353.349 19.3719 353.413 20.8973 353.413 22.6679V30.7959H348.741V8.61993H355.269L361.829 25.8359C361.359 22.9133 361.125 20.1613 361.125 17.5799V8.61993H365.829V30.7959Z" fill="#DB240B"/>
<path d="M389.639 30.7959L388.487 26.0279H382.023L380.903 30.7959H375.463L382.151 8.61993H388.519L395.207 30.7959H389.639ZM382.919 22.2199H387.591L385.255 12.4279L382.919 22.2199Z" fill="#DB240B"/>
<path d="M411.97 8.07593C413.634 8.07593 415.074 8.31059 416.29 8.77993C417.528 9.24926 418.648 9.96393 419.65 10.9239L417.218 13.7719C415.704 12.5346 414.082 11.9159 412.354 11.9159C411.437 11.9159 410.712 12.1079 410.178 12.4919C409.645 12.8546 409.378 13.3879 409.378 14.0919C409.378 14.5826 409.496 14.9879 409.73 15.3079C409.965 15.6066 410.381 15.8946 410.978 16.1719C411.576 16.4493 412.472 16.7799 413.666 17.1639C415.928 17.8893 417.592 18.7853 418.658 19.8519C419.725 20.8973 420.258 22.3906 420.258 24.3319C420.258 25.7186 419.906 26.9453 419.202 28.0119C418.498 29.0573 417.485 29.8786 416.162 30.4759C414.84 31.0519 413.272 31.3399 411.458 31.3399C409.645 31.3399 408.034 31.0519 406.626 30.4759C405.24 29.8999 404.045 29.1319 403.042 28.1719L405.698 25.2599C406.552 25.9853 407.426 26.5293 408.322 26.8919C409.24 27.2546 410.232 27.4359 411.298 27.4359C412.386 27.4359 413.24 27.2013 413.858 26.7319C414.498 26.2413 414.818 25.5693 414.818 24.7159C414.818 24.1613 414.701 23.7026 414.466 23.3399C414.232 22.9559 413.826 22.6146 413.25 22.3159C412.674 22.0173 411.842 21.6973 410.754 21.3559C408.301 20.6093 406.552 19.6919 405.506 18.6039C404.482 17.5159 403.97 16.1399 403.97 14.4759C403.97 13.1959 404.312 12.0759 404.994 11.1159C405.677 10.1346 406.626 9.38793 407.842 8.87593C409.058 8.34259 410.434 8.07593 411.97 8.07593Z" fill="#DB240B"/>
<path d="M442.671 30.7959L441.519 26.0279H435.055L433.935 30.7959H428.495L435.183 8.61993H441.551L448.239 30.7959H442.671ZM435.951 22.2199H440.623L438.287 12.4279L435.951 22.2199Z" fill="#DB240B"/>
<path d="M243.009 44.948V71.244H237.423V44.948H243.009Z" fill="white"/>
<path d="M272.989 71.244H265.807L257.447 50.382C257.675 52.1806 257.852 53.878 257.979 55.474C258.131 57.0446 258.207 58.894 258.207 61.022V71.244H253.153V44.948H260.183L268.695 65.848C268.188 62.4533 267.935 59.3373 267.935 56.5V44.948H272.989V71.244Z" fill="white"/>
<path d="M300.538 44.948L299.93 49.318H293.28V71.244H287.694V49.318H280.702V44.948H300.538Z" fill="white"/>
<path d="M323.648 44.948L323.04 49.014H313.54V55.854H321.824V59.882H313.54V67.14H323.724V71.244H307.954V44.948H323.648Z" fill="white"/>
<path d="M341.027 60.946H338.177V71.244H332.591V44.948H340.799C344.32 44.948 346.967 45.6066 348.741 46.924C350.514 48.216 351.401 50.1793 351.401 52.814C351.401 54.5366 350.97 55.9553 350.109 57.07C349.273 58.1846 347.968 59.1346 346.195 59.92L352.997 71.244H346.651L341.027 60.946ZM338.177 56.994H341.103C342.597 56.994 343.725 56.6646 344.485 56.006C345.245 55.322 345.625 54.258 345.625 52.814C345.625 51.4713 345.219 50.496 344.409 49.888C343.623 49.2546 342.382 48.938 340.685 48.938H338.177V56.994Z" fill="white"/>
<path d="M380.328 71.244H373.146L364.786 50.382C365.014 52.1806 365.192 53.878 365.318 55.474C365.47 57.0446 365.546 58.894 365.546 61.022V71.244H360.492V44.948H367.522L376.034 65.848C375.528 62.4533 375.274 59.3373 375.274 56.5V44.948H380.328V71.244Z" fill="white"/>
<path d="M404.343 71.244L402.861 65.354H394.615L393.133 71.244H387.319L395.413 44.948H402.215L410.271 71.244H404.343ZM395.679 61.212H401.797L398.719 49.09L395.679 61.212Z" fill="white"/>
<path d="M432.81 44.948L432.202 49.318H425.552V71.244H419.966V49.318H412.974V44.948H432.81Z" fill="white"/>
<path d="M445.813 44.948V71.244H440.227V44.948H445.813Z" fill="white"/>
<path d="M466.331 44.34C468.738 44.34 470.815 44.8846 472.563 45.974C474.311 47.038 475.654 48.596 476.591 50.648C477.528 52.7 477.997 55.1826 477.997 58.096C477.997 60.9586 477.528 63.4286 476.591 65.506C475.654 67.558 474.311 69.1286 472.563 70.218C470.815 71.3073 468.738 71.852 466.331 71.852C463.924 71.852 461.834 71.32 460.061 70.256C458.313 69.1666 456.97 67.596 456.033 65.544C455.096 63.4666 454.627 60.984 454.627 58.096C454.627 55.2586 455.096 52.814 456.033 50.762C456.996 48.6846 458.351 47.1013 460.099 46.012C461.872 44.8973 463.95 44.34 466.331 44.34ZM466.331 48.52C464.406 48.52 462.949 49.28 461.961 50.8C460.998 52.32 460.517 54.752 460.517 58.096C460.517 61.44 461.011 63.872 461.999 65.392C462.987 66.912 464.431 67.672 466.331 67.672C468.256 67.672 469.7 66.9246 470.663 65.43C471.626 63.91 472.107 61.4653 472.107 58.096C472.107 54.7266 471.626 52.2946 470.663 50.8C469.7 49.28 468.256 48.52 466.331 48.52Z" fill="white"/>
<path d="M506.626 71.244H499.444L491.084 50.382C491.312 52.1806 491.49 53.878 491.616 55.474C491.768 57.0446 491.844 58.894 491.844 61.022V71.244H486.79V44.948H493.82L502.332 65.848C501.826 62.4533 501.572 59.3373 501.572 56.5V44.948H506.626V71.244Z" fill="white"/>
<path d="M530.641 71.244L529.159 65.354H520.913L519.431 71.244H513.617L521.711 44.948H528.513L536.569 71.244H530.641ZM521.977 61.212H528.095L525.017 49.09L521.977 61.212Z" fill="white"/>
<path d="M549.145 44.948V66.76H559.557L558.949 71.244H543.559V44.948H549.145Z" fill="white"/>
<path d="M254.9 159.025C254.9 163.12 253.325 165.43 249.44 165.43C245.03 165.43 243.665 162.49 243.665 157.87V140.65H236V159.025C236 168.37 240.095 173.305 249.545 173.305C259.1 173.305 262.88 168.16 262.88 159.025V146.635C262.88 139.075 261.935 136.45 259.1 132.88C255.845 128.785 249.755 123.745 245.975 118.81C244.4 116.815 244.085 115.765 244.085 112.09V99.28C244.085 95.185 245.975 93.085 249.65 93.085C253.955 93.085 255.11 96.025 255.11 100.33V115.03H262.565V99.28C262.565 89.725 259.1 85 249.755 85C240.515 85 236 89.62 236 99.28V112.195C236 117.97 236.21 120.07 238.835 123.43C241.88 127.315 247.865 132.355 252.275 137.815C254.375 140.44 254.9 141.49 254.9 146.74V159.025Z" fill="white"/>
<path d="M292.55 115.975C292.55 121.33 290.345 123.535 285.725 123.535H280.16V94.03H285.62C290.66 94.03 292.55 96.445 292.55 101.59V115.975ZM280.16 172.36V131.305H285.725C295.805 131.305 300.425 126.685 300.425 115.765V101.59C300.425 90.67 295.7 85.945 285.62 85.945H272.18V172.36H280.16Z" fill="white"/>
<path d="M333.464 172.36L322.229 85.945H312.884L301.019 172.36H308.789L310.679 157.87H323.594L325.484 172.36H333.464ZM311.624 150.52C313.619 135.715 315.509 121.435 317.294 106.21C318.974 121.435 320.864 135.715 322.649 150.52H311.624Z" fill="white"/>
<path d="M358.382 158.605C358.382 163.225 356.912 165.43 353.027 165.43C349.247 165.43 347.357 163.12 347.357 158.605V99.805C347.357 95.29 349.247 93.085 353.027 93.085C357.122 93.085 358.382 95.185 358.382 99.805V115.03H365.627V99.7C365.627 89.935 361.427 85 353.027 85C343.892 85 339.272 89.935 339.272 99.91V158.71C339.272 168.475 343.892 173.305 353.027 173.305C361.847 173.305 365.627 168.58 365.627 158.5V140.65H358.382V158.605Z" fill="white"/>
<path d="M398.344 172.36V164.485H382.909V132.355H393.409V124.375H382.909V94.03H397.819V85.945H374.929V172.36H398.344Z" fill="white"/>
<path d="M453.783 172.36L442.548 85.945H433.203L421.338 172.36H429.108L430.998 157.87H443.913L445.803 172.36H453.783ZM431.943 150.52C433.938 135.715 435.828 121.435 437.613 106.21C439.293 121.435 441.183 135.715 442.968 150.52H431.943Z" fill="white"/>
<path d="M482.129 115.975C482.129 121.33 479.924 123.535 475.304 123.535H469.739V94.03H475.199C480.239 94.03 482.129 96.445 482.129 101.59V115.975ZM469.739 172.36V131.305H475.304C485.384 131.305 490.004 126.685 490.004 115.765V101.59C490.004 90.67 485.279 85.945 475.199 85.945H461.759V172.36H469.739Z" fill="white"/>
<path d="M518.592 115.975C518.592 121.33 516.387 123.535 511.767 123.535H506.202V94.03H511.662C516.702 94.03 518.592 96.445 518.592 101.59V115.975ZM506.202 172.36V131.305H511.767C521.847 131.305 526.467 126.685 526.467 115.765V101.59C526.467 90.67 521.742 85.945 511.662 85.945H498.222V172.36H506.202Z" fill="white"/>
<path d="M553.253 159.025C553.253 163.12 551.678 165.43 547.793 165.43C543.383 165.43 542.018 162.49 542.018 157.87V140.65H534.353V159.025C534.353 168.37 538.448 173.305 547.898 173.305C557.453 173.305 561.233 168.16 561.233 159.025V146.635C561.233 139.075 560.288 136.45 557.453 132.88C554.198 128.785 548.108 123.745 544.328 118.81C542.753 116.815 542.438 115.765 542.438 112.09V99.28C542.438 95.185 544.328 93.085 548.003 93.085C552.308 93.085 553.463 96.025 553.463 100.33V115.03H560.918V99.28C560.918 89.725 557.453 85 548.108 85C538.868 85 534.353 89.62 534.353 99.28V112.195C534.353 117.97 534.563 120.07 537.188 123.43C540.233 127.315 546.218 132.355 550.628 137.815C552.728 140.44 553.253 141.49 553.253 146.74V159.025Z" fill="white"/>
<path d="M247.896 185.793C250.834 185.72 253.692 186.749 255.909 188.679L252.949 192.209C252.245 191.65 251.466 191.191 250.635 190.846C249.853 190.536 249.019 190.381 248.179 190.392C247.343 190.375 246.518 190.571 245.78 190.962C245.042 191.354 244.415 191.926 243.96 192.627C242.953 194.125 242.448 196.429 242.444 199.54C242.44 202.651 242.945 204.929 243.96 206.374C244.431 207.076 245.072 207.646 245.824 208.03C246.576 208.415 247.414 208.601 248.258 208.572C249.16 208.587 250.054 208.407 250.88 208.044C251.777 207.596 252.629 207.061 253.422 206.448L256.197 210.015C255.156 211.05 253.932 211.882 252.587 212.471C251.131 213.118 249.551 213.443 247.958 213.423C245.738 213.476 243.545 212.924 241.615 211.826C239.772 210.712 238.305 209.072 237.403 207.117C236.357 204.74 235.849 202.161 235.917 199.565C235.855 197.003 236.382 194.461 237.458 192.136C238.384 190.184 239.861 188.547 241.707 187.426C243.581 186.325 245.722 185.76 247.896 185.793Z" fill="white"/>
<path d="M289.334 212.753V201.474H281.439V212.753H275.207V186.438H281.439V196.618H289.334V186.438H295.56V212.753H289.334Z" fill="white"/>
<path d="M330.564 212.753L329.201 207.092H321.532L320.2 212.753H313.747L321.679 186.438H329.238L337.17 212.753H330.564ZM322.582 202.573H328.108L325.333 190.957L322.582 202.573Z" fill="white"/>
<path d="M361.54 186.438V207.799H371.794L371.18 212.71H355.345V186.438H361.54Z" fill="white"/>
<path d="M397.219 186.438V207.799H407.466L406.852 212.71H390.993V186.438H397.219Z" fill="white"/>
<path d="M442.808 186.438L442.157 190.883H432.898V197.183H440.984V201.554H432.898V208.271H442.808V212.753H426.672V186.438H442.808Z" fill="white"/>
<path d="M483.141 212.753H475.208L467.613 192.363C467.865 194.364 468.055 196.133 468.184 197.68C468.313 199.227 468.411 201.008 468.411 203.108V212.753H462.885V186.438H470.628L478.413 206.865C477.873 203.618 477.594 200.333 477.578 197.041V186.438H483.159L483.141 212.753Z" fill="white"/>
<path d="M515.646 185.793C518.869 185.736 521.997 186.888 524.413 189.023L521.264 192.326C520.466 191.698 519.583 191.188 518.642 190.809C517.774 190.462 516.844 190.293 515.91 190.312C515.001 190.287 514.1 190.484 513.285 190.888C512.471 191.292 511.767 191.889 511.237 192.627C510.079 194.149 509.497 196.466 509.493 199.577C509.493 202.942 509.935 205.334 510.82 206.755C511.26 207.44 511.877 207.995 512.604 208.362C513.332 208.729 514.145 208.895 514.958 208.842C516.201 208.857 517.429 208.557 518.525 207.97V202.009H515.111L514.497 197.6H524.561V210.623C523.164 211.525 521.641 212.216 520.042 212.674C518.448 213.149 516.793 213.393 515.13 213.398C511.135 213.398 508.122 212.234 506.092 209.904C504.062 207.575 503.051 204.133 503.059 199.577C502.988 197.001 503.546 194.447 504.686 192.136C505.704 190.161 507.274 188.525 509.205 187.426C511.172 186.329 513.393 185.765 515.646 185.793Z" fill="white"/>
<path d="M561.069 186.438L560.455 190.883H551.159V197.183H559.251V201.554H551.159V208.271H561.069V212.753H544.933V186.438H561.069Z" fill="white"/>
</g>
<defs>
<clipPath id="clip0_288_1130">
<rect width="560.841" height="220.501" fill="white" transform="translate(0.45752 0.500732)"/>
</clipPath>
</defs>
</svg>
