<svg width="429" height="428" viewBox="0 0 429 428" fill="none" xmlns="http://www.w3.org/2000/svg">
<path d="M181.806 120.409H175.104L168.691 103.19C168.905 104.878 169.065 106.375 169.172 107.679C169.3 108.961 169.364 110.49 169.364 112.264V120.409H164.683V98.1876H171.224L177.798 115.438C177.327 112.51 177.092 109.752 177.092 107.166V98.1876H181.806V120.409Z" fill="#DB240B"/>
<path d="M205.665 120.409L204.51 115.631H198.033L196.911 120.409H191.46L198.161 98.1876H204.542L211.244 120.409H205.665ZM198.931 111.815H203.612L201.272 102.003L198.931 111.815Z" fill="#DB240B"/>
<path d="M228.041 97.6425C229.708 97.6425 231.151 97.8776 232.37 98.3479C233.61 98.8182 234.732 99.5343 235.736 100.496L233.3 103.35C231.782 102.11 230.157 101.49 228.426 101.49C227.507 101.49 226.78 101.683 226.245 102.067C225.711 102.431 225.444 102.965 225.444 103.671C225.444 104.162 225.561 104.568 225.796 104.889C226.032 105.188 226.448 105.477 227.047 105.755C227.645 106.033 228.543 106.364 229.74 106.749C232.006 107.476 233.674 108.374 234.742 109.442C235.811 110.49 236.346 111.986 236.346 113.931C236.346 115.321 235.993 116.55 235.288 117.619C234.582 118.666 233.567 119.489 232.241 120.088C230.916 120.665 229.345 120.954 227.528 120.954C225.711 120.954 224.097 120.665 222.686 120.088C221.297 119.511 220.1 118.741 219.095 117.779L221.756 114.861C222.611 115.588 223.488 116.133 224.386 116.497C225.305 116.86 226.299 117.042 227.368 117.042C228.458 117.042 229.313 116.807 229.933 116.336C230.574 115.845 230.895 115.171 230.895 114.316C230.895 113.76 230.777 113.301 230.542 112.937C230.307 112.553 229.901 112.211 229.324 111.911C228.746 111.612 227.913 111.291 226.822 110.949C224.364 110.201 222.611 109.282 221.564 108.192C220.538 107.102 220.025 105.723 220.025 104.055C220.025 102.773 220.367 101.651 221.051 100.689C221.735 99.7053 222.686 98.9571 223.905 98.4441C225.123 97.9097 226.502 97.6425 228.041 97.6425Z" fill="#DB240B"/>
<path d="M258.803 120.409L257.649 115.631H251.172L250.05 120.409H244.599L251.3 98.1876H257.681L264.383 120.409H258.803ZM252.07 111.815H256.751L254.411 102.003L252.07 111.815Z" fill="#DB240B"/>
<path d="M58.7366 134.403V160.752H53.1393V134.403H58.7366Z" fill="black"/>
<path d="M88.7773 160.752H81.5807L73.2038 139.848C73.4323 141.65 73.61 143.351 73.7369 144.95C73.8892 146.524 73.9653 148.377 73.9653 150.509V160.752H68.9011V134.403H75.9453L84.4746 155.345C83.9669 151.944 83.7131 148.821 83.7131 145.978V134.403H88.7773V160.752Z" fill="black"/>
<path d="M116.382 134.403L115.773 138.782H109.109V160.752H103.512V138.782H96.5058V134.403H116.382Z" fill="black"/>
<path d="M139.54 134.403L138.93 138.477H129.411V145.331H137.712V149.367H129.411V156.64H139.616V160.752H123.814V134.403H139.54Z" fill="black"/>
<path d="M156.953 150.433H154.097V160.752H148.5V134.403H156.725C160.253 134.403 162.906 135.063 164.683 136.383C166.46 137.677 167.348 139.645 167.348 142.285C167.348 144.011 166.917 145.432 166.053 146.549C165.216 147.666 163.908 148.618 162.132 149.405L168.947 160.752H162.588L156.953 150.433ZM154.097 146.473H157.029C158.527 146.473 159.657 146.143 160.418 145.483C161.18 144.798 161.56 143.732 161.56 142.285C161.56 140.939 161.154 139.962 160.342 139.353C159.555 138.718 158.311 138.401 156.61 138.401H154.097V146.473Z" fill="black"/>
<path d="M196.335 160.752H189.138L180.761 139.848C180.989 141.65 181.167 143.351 181.294 144.95C181.446 146.524 181.523 148.377 181.523 150.509V160.752H176.458V134.403H183.503L192.032 155.345C191.524 151.944 191.27 148.821 191.27 145.978V134.403H196.335V160.752Z" fill="black"/>
<path d="M220.398 160.752L218.913 154.85H210.65L209.165 160.752H203.34L211.45 134.403H218.266L226.338 160.752H220.398ZM211.716 150.7H217.847L214.763 138.553L211.716 150.7Z" fill="black"/>
<path d="M248.923 134.403L248.314 138.782H241.65V160.752H236.053V138.782H229.047V134.403H248.923Z" fill="black"/>
<path d="M261.952 134.403V160.752H256.355V134.403H261.952Z" fill="black"/>
<path d="M282.511 133.794C284.923 133.794 287.005 134.339 288.756 135.431C290.508 136.497 291.853 138.058 292.792 140.114C293.732 142.171 294.201 144.658 294.201 147.577C294.201 150.446 293.732 152.921 292.792 155.002C291.853 157.059 290.508 158.633 288.756 159.724C287.005 160.816 284.923 161.361 282.511 161.361C280.1 161.361 278.006 160.828 276.229 159.762C274.477 158.671 273.132 157.097 272.193 155.041C271.253 152.959 270.784 150.471 270.784 147.577C270.784 144.734 271.253 142.285 272.193 140.229C273.157 138.147 274.515 136.561 276.267 135.469C278.044 134.352 280.125 133.794 282.511 133.794ZM282.511 137.982C280.582 137.982 279.123 138.744 278.133 140.267C277.168 141.79 276.686 144.227 276.686 147.577C276.686 150.928 277.181 153.365 278.171 154.888C279.161 156.411 280.608 157.173 282.511 157.173C284.441 157.173 285.888 156.424 286.852 154.926C287.817 153.403 288.299 150.954 288.299 147.577C288.299 144.201 287.817 141.764 286.852 140.267C285.888 138.744 284.441 137.982 282.511 137.982Z" fill="black"/>
<path d="M322.889 160.752H315.692L307.315 139.848C307.544 141.65 307.721 143.351 307.848 144.95C308.001 146.524 308.077 148.377 308.077 150.509V160.752H303.012V134.403H310.057L318.586 155.345C318.078 151.944 317.824 148.821 317.824 145.978V134.403H322.889V160.752Z" fill="black"/>
<path d="M346.952 160.752L345.467 154.85H337.204L335.719 160.752H329.894L338.004 134.403H344.82L352.892 160.752H346.952ZM338.271 150.7H344.401L341.317 138.553L338.271 150.7Z" fill="black"/>
<path d="M365.493 134.403V156.259H375.926L375.317 160.752H359.896V134.403H365.493Z" fill="black"/>
<path d="M71.3308 247.678C71.3308 251.767 69.7563 254.073 65.8724 254.073C61.4637 254.073 60.0991 251.138 60.0991 246.525V229.332H52.4364V247.678C52.4364 257.009 56.5302 261.936 65.9774 261.936C75.5296 261.936 79.3084 256.799 79.3084 247.678V235.307C79.3084 227.759 78.3637 225.138 75.5296 221.574C72.2755 217.485 66.1873 212.453 62.4085 207.525C60.8339 205.534 60.519 204.485 60.519 200.816V188.026C60.519 183.937 62.4085 181.84 66.0824 181.84C70.3861 181.84 71.5407 184.776 71.5407 189.074V203.751H78.9935V188.026C78.9935 178.486 75.5296 173.768 66.1873 173.768C56.9501 173.768 52.4364 178.381 52.4364 188.026V200.921C52.4364 206.687 52.6463 208.784 55.2706 212.138C58.3147 216.017 64.2979 221.049 68.7066 226.501C70.806 229.122 71.3308 230.17 71.3308 235.412V247.678Z" fill="black"/>
<path d="M108.97 204.695C108.97 210.042 106.765 212.243 102.147 212.243H96.5832V182.784H102.042C107.08 182.784 108.97 185.195 108.97 190.332V204.695ZM96.5832 260.992V220.001H102.147C112.224 220.001 116.842 215.388 116.842 204.485V190.332C116.842 179.429 112.119 174.711 102.042 174.711H88.6056V260.992H96.5832Z" fill="black"/>
<path d="M149.871 260.992L138.64 174.711H129.297L117.436 260.992H125.204L127.093 246.525H140.004L141.894 260.992H149.871ZM128.038 239.186C130.032 224.404 131.922 210.146 133.706 194.945C135.386 210.146 137.275 224.404 139.06 239.186H128.038Z" fill="black"/>
<path d="M174.782 247.259C174.782 251.872 173.312 254.073 169.428 254.073C165.649 254.073 163.76 251.767 163.76 247.259V188.55C163.76 184.042 165.649 181.84 169.428 181.84C173.522 181.84 174.782 183.937 174.782 188.55V203.751H182.025V188.445C182.025 178.695 177.826 173.768 169.428 173.768C160.296 173.768 155.677 178.695 155.677 188.655V247.364C155.677 257.113 160.296 261.936 169.428 261.936C178.246 261.936 182.025 257.218 182.025 247.154V229.332H174.782V247.259Z" fill="black"/>
<path d="M214.732 260.992V253.13H199.302V221.049H209.799V213.082H199.302V182.784H214.207V174.711H191.324V260.992H214.732Z" fill="black"/>
<path d="M270.155 260.992L258.923 174.711H249.581L237.72 260.992H245.487L247.377 246.525H260.288L262.177 260.992H270.155ZM248.322 239.186C250.316 224.404 252.205 210.146 253.99 194.945C255.669 210.146 257.559 224.404 259.343 239.186H248.322Z" fill="black"/>
<path d="M298.493 204.695C298.493 210.042 296.288 212.243 291.67 212.243H286.106V182.784H291.565C296.603 182.784 298.493 185.195 298.493 190.332V204.695ZM286.106 260.992V220.001H291.67C301.747 220.001 306.365 215.388 306.365 204.485V190.332C306.365 179.429 301.642 174.711 291.565 174.711H278.129V260.992H286.106Z" fill="black"/>
<path d="M334.945 204.695C334.945 210.042 332.74 212.243 328.122 212.243H322.558V182.784H328.017C333.055 182.784 334.945 185.195 334.945 190.332V204.695ZM322.558 260.992V220.001H328.122C338.199 220.001 342.817 215.388 342.817 204.485V190.332C342.817 179.429 338.094 174.711 328.017 174.711H314.581V260.992H322.558Z" fill="black"/>
<path d="M369.595 247.678C369.595 251.767 368.021 254.073 364.137 254.073C359.728 254.073 358.363 251.138 358.363 246.525V229.332H350.701V247.678C350.701 257.009 354.794 261.936 364.242 261.936C373.794 261.936 377.573 256.799 377.573 247.678V235.307C377.573 227.759 376.628 225.138 373.794 221.574C370.54 217.485 364.452 212.453 360.673 207.525C359.098 205.534 358.783 204.485 358.783 200.816V188.026C358.783 183.937 360.673 181.84 364.347 181.84C368.65 181.84 369.805 184.776 369.805 189.074V203.751H377.258V188.026C377.258 178.486 373.794 173.768 364.452 173.768C355.214 173.768 350.701 178.381 350.701 188.026V200.921C350.701 206.687 350.911 208.784 353.535 212.138C356.579 216.017 362.562 221.049 366.971 226.501C369.07 229.122 369.595 230.17 369.595 235.412V247.678Z" fill="black"/>
<path d="M63.6338 275.161C66.5774 275.088 69.4417 276.119 71.6626 278.052L68.6972 281.59C67.9913 281.029 67.2106 280.57 66.3777 280.224C65.595 279.913 64.759 279.759 63.9168 279.769C63.08 279.752 62.2527 279.949 61.5131 280.341C60.7735 280.733 60.1461 281.307 59.6901 282.008C58.6811 283.51 58.1746 285.819 58.1705 288.936C58.1664 292.053 58.6729 294.336 59.6901 295.784C60.1615 296.487 60.8043 297.058 61.5579 297.443C62.3115 297.829 63.1509 298.015 63.9968 297.986C64.9003 298.001 65.7964 297.82 66.6238 297.457C67.5229 297.008 68.376 296.472 69.1709 295.857L71.9518 299.432C70.9082 300.469 69.6817 301.303 68.3342 301.893C66.8748 302.542 65.2923 302.867 63.6953 302.847C61.471 302.899 59.2741 302.347 57.3399 301.247C55.4934 300.131 54.0235 298.487 53.1194 296.528C52.071 294.146 51.5625 291.562 51.6305 288.961C51.568 286.394 52.0963 283.847 53.1748 281.516C54.1024 279.561 55.5825 277.921 57.4322 276.797C59.3103 275.694 61.4557 275.128 63.6338 275.161Z" fill="black"/>
<path d="M105.156 302.176V290.874H97.2442V302.176H90.9995V275.807H97.2442V286.007H105.156V275.807H111.395V302.176H105.156Z" fill="black"/>
<path d="M146.469 302.176L145.103 296.503H137.419L136.084 302.176H129.618L137.567 275.807H145.14L153.089 302.176H146.469ZM138.471 291.975H144.008L141.227 280.335L138.471 291.975Z" fill="black"/>
<path d="M177.508 275.807V297.211H187.782L187.167 302.133H171.3V275.807H177.508Z" fill="black"/>
<path d="M213.259 275.807V297.211H223.528L222.912 302.133H207.021V275.807H213.259Z" fill="black"/>
<path d="M258.94 275.807L258.288 280.261H249.01V286.573H257.113V290.954H249.01V297.685H258.94V302.176H242.772V275.807H258.94Z" fill="black"/>
<path d="M299.355 302.176H291.406L283.796 281.744C284.048 283.749 284.239 285.521 284.368 287.072C284.497 288.622 284.596 290.406 284.596 292.51V302.176H279.059V275.807H286.817L294.618 296.276C294.077 293.022 293.797 289.73 293.781 286.432V275.807H299.374L299.355 302.176Z" fill="black"/>
<path d="M331.926 275.161C335.156 275.103 338.291 276.258 340.711 278.397L337.555 281.707C336.756 281.078 335.872 280.566 334.928 280.187C334.058 279.839 333.127 279.67 332.19 279.689C331.28 279.664 330.377 279.862 329.561 280.266C328.745 280.671 328.04 281.269 327.509 282.008C326.348 283.534 325.765 285.856 325.761 288.973C325.761 292.344 326.204 294.742 327.09 296.165C327.532 296.852 328.149 297.408 328.879 297.776C329.608 298.144 330.422 298.31 331.237 298.257C332.483 298.272 333.713 297.971 334.811 297.383V291.409H331.391L330.775 286.992H340.859V300.041C339.459 300.945 337.933 301.638 336.331 302.096C334.734 302.572 333.076 302.817 331.409 302.822C327.406 302.822 324.387 301.655 322.353 299.321C320.318 296.987 319.305 293.538 319.314 288.973C319.243 286.392 319.802 283.832 320.944 281.516C321.964 279.538 323.537 277.898 325.472 276.797C327.443 275.697 329.669 275.133 331.926 275.161Z" fill="black"/>
<path d="M377.441 275.807L376.826 280.261H367.511V286.573H375.62V290.954H367.511V297.685H377.441V302.176H361.273V275.807H377.441Z" fill="black"/>
<path fill-rule="evenodd" clip-rule="evenodd" d="M412.421 81.0308C413.267 82.7224 412.58 84.7789 410.889 85.6241L345.294 118.4C343.602 119.246 341.545 118.56 340.7 116.868C339.855 115.176 340.541 113.12 342.233 112.275L407.828 79.4983C409.52 78.6531 411.576 79.3392 412.421 81.0308Z" fill="black"/>
<path fill-rule="evenodd" clip-rule="evenodd" d="M332.644 71.6301C320.796 71.6301 311.192 81.2342 311.192 93.0815C311.192 104.929 320.796 114.533 332.644 114.533C344.491 114.533 354.095 104.929 354.095 93.0815C354.095 81.2342 344.491 71.6301 332.644 71.6301ZM304.344 93.0815C304.344 77.4522 317.014 64.7821 332.644 64.7821C348.273 64.7821 360.943 77.4522 360.943 93.0815C360.943 108.711 348.273 121.381 332.644 121.381C317.014 121.381 304.344 108.711 304.344 93.0815Z" fill="black"/>
<path fill-rule="evenodd" clip-rule="evenodd" d="M344.694 13.3038C346.386 14.1491 347.072 16.2056 346.227 17.8972L313.451 83.4925C312.605 85.1841 310.549 85.8702 308.857 85.025C307.166 84.1797 306.48 82.1232 307.325 80.4316L340.101 14.8363C340.946 13.1447 343.003 12.4586 344.694 13.3038Z" fill="black"/>
<path fill-rule="evenodd" clip-rule="evenodd" d="M354.267 41.4082C355.859 42.43 356.32 44.5482 355.299 46.1394L339.711 70.4156C338.689 72.0068 336.571 72.4685 334.98 71.4468C333.388 70.425 332.927 68.3068 333.948 66.7156L349.536 42.4394C350.558 40.8482 352.676 40.3865 354.267 41.4082Z" fill="black"/>
<path fill-rule="evenodd" clip-rule="evenodd" d="M412.421 81.0308C413.267 82.7224 412.58 84.7789 410.889 85.6241L345.294 118.4C343.602 119.246 341.545 118.56 340.7 116.868C339.855 115.176 340.541 113.12 342.233 112.275L407.828 79.4983C409.52 78.6531 411.576 79.3392 412.421 81.0308Z" fill="black"/>
<path fill-rule="evenodd" clip-rule="evenodd" d="M384.317 71.4585C385.339 73.05 384.876 75.1682 383.285 76.1895L359.009 91.7687C357.417 92.79 355.299 92.3278 354.278 90.7363C353.257 89.1448 353.719 87.0267 355.31 86.0054L379.586 70.4262C381.178 69.4049 383.296 69.8671 384.317 71.4585Z" fill="black"/>
<path fill-rule="evenodd" clip-rule="evenodd" d="M375.99 49.735C377.327 51.0722 377.327 53.2402 375.99 54.5773L352.656 77.9119C351.319 79.249 349.151 79.249 347.813 77.9119C346.476 76.5747 346.476 74.4068 347.813 73.0696L371.148 49.735C372.485 48.3979 374.653 48.3979 375.99 49.735Z" fill="black"/>
<path fill-rule="evenodd" clip-rule="evenodd" d="M76.8607 319.198C78.3285 318.006 80.4849 318.229 81.6771 319.697C97.3866 339.037 117.212 354.63 139.709 365.34C162.206 376.05 186.809 381.607 211.725 381.607C236.641 381.607 261.244 376.05 283.741 365.34C306.238 354.63 326.064 339.037 341.773 319.697C342.965 318.229 345.122 318.006 346.59 319.198C348.057 320.391 348.281 322.547 347.089 324.015C330.737 344.145 310.101 360.375 286.685 371.523C263.268 382.67 237.66 388.455 211.725 388.455C185.79 388.455 160.182 382.67 136.766 371.523C113.349 360.375 92.7133 344.145 76.3617 324.015C75.1695 322.547 75.3928 320.391 76.8607 319.198Z" fill="black"/>
<path fill-rule="evenodd" clip-rule="evenodd" d="M186.558 41.3946C232.29 34.7251 278.799 46.4774 315.873 74.0708C317.39 75.1998 317.705 77.3449 316.576 78.8618C315.446 80.3788 313.301 80.6933 311.784 79.5642C276.166 53.0542 231.483 41.7633 187.546 48.1709C143.61 54.5785 104.012 78.1608 77.4489 113.739C76.3175 115.255 74.172 115.566 72.6568 114.435C71.1415 113.303 70.8302 111.158 71.9616 109.643C99.6106 72.61 140.826 48.064 186.558 41.3946Z" fill="black"/>
</svg>
