<svg width="562" height="221" viewBox="0 0 562 221" fill="none" xmlns="http://www.w3.org/2000/svg">
<g clip-path="url(#clip0_288_1147)">
<path fill-rule="evenodd" clip-rule="evenodd" d="M165.818 3.60842C166.429 2.37032 165.921 0.871231 164.683 0.260114C163.445 -0.351002 161.946 0.157272 161.335 1.39538L138.575 47.5068C103.285 27.4832 57.6372 32.5076 27.5501 62.5946C-8.57335 98.7181 -8.57335 157.286 27.5501 193.409C63.6736 229.533 122.241 229.533 158.365 193.409C188.544 163.231 193.507 117.395 173.268 82.0617L219.287 59.3475C220.525 58.7363 221.033 57.2373 220.422 55.9991C219.811 54.761 218.312 54.2528 217.074 54.8639L174.875 75.6927C176.399 72.4053 177.087 68.8257 176.938 65.2746L197.075 50.7022C198.193 49.8928 198.444 48.3298 197.635 47.2113C196.825 46.0927 195.262 45.8421 194.144 46.6516L176.016 59.7695C175.209 57.0654 173.883 54.4832 172.038 52.1796L191.232 32.9858C192.208 32.0095 192.208 30.4266 191.232 29.4503C190.256 28.4739 188.673 28.4739 187.696 29.4503L168.503 48.6441C166.199 46.7991 163.617 45.473 160.913 44.6659L174.031 26.5385C174.84 25.4199 174.589 23.857 173.471 23.0475C172.352 22.2381 170.789 22.4887 169.98 23.6072L155.408 43.7446C151.856 43.5954 148.277 44.2829 144.989 45.807L165.818 3.60842ZM166.08 85.61L164.255 86.5105C164.14 86.5673 164.023 86.6144 163.904 86.6522C155.587 90.4976 145.405 88.9917 138.548 82.1345C131.69 75.2774 130.185 65.0954 134.03 56.7779C134.068 56.6593 134.115 56.542 134.172 56.4269L135.027 54.6936C102.736 36.1347 60.7996 40.6589 33.207 68.2515C0.207691 101.251 0.207691 154.753 33.207 187.753C66.2063 220.752 119.709 220.752 152.708 187.753C180.393 160.068 184.854 117.944 166.08 85.61ZM142.083 53.8503C148.917 47.0161 159.998 47.0161 166.832 53.8503C173.666 60.6844 173.666 71.7648 166.832 78.599C159.998 85.4332 148.917 85.4332 142.083 78.599C135.249 71.7648 135.249 60.6844 142.083 53.8503Z" fill="black"/>
<path d="M365.829 30.2965H359.141L352.741 13.1125C352.954 14.7979 353.114 16.2912 353.221 17.5925C353.349 18.8725 353.413 20.3979 353.413 22.1685V30.2965H348.741V8.12054H355.269L361.829 25.3365C361.359 22.4139 361.125 19.6619 361.125 17.0805V8.12054H365.829V30.2965Z" fill="black"/>
<path d="M389.639 30.2965L388.487 25.5285H382.023L380.903 30.2965H375.463L382.151 8.12054H388.519L395.207 30.2965H389.639ZM382.919 21.7205H387.591L385.255 11.9285L382.919 21.7205Z" fill="black"/>
<path d="M411.97 7.57654C413.634 7.57654 415.074 7.8112 416.29 8.28054C417.528 8.74987 418.648 9.46454 419.65 10.4245L417.218 13.2725C415.704 12.0352 414.082 11.4165 412.354 11.4165C411.437 11.4165 410.712 11.6085 410.178 11.9925C409.645 12.3552 409.378 12.8885 409.378 13.5925C409.378 14.0832 409.496 14.4885 409.73 14.8085C409.965 15.1072 410.381 15.3952 410.978 15.6725C411.576 15.9499 412.472 16.2805 413.666 16.6645C415.928 17.3899 417.592 18.2859 418.658 19.3525C419.725 20.3979 420.258 21.8912 420.258 23.8325C420.258 25.2192 419.906 26.4459 419.202 27.5125C418.498 28.5579 417.485 29.3792 416.162 29.9765C414.84 30.5525 413.272 30.8405 411.458 30.8405C409.645 30.8405 408.034 30.5525 406.626 29.9765C405.24 29.4005 404.045 28.6325 403.042 27.6725L405.698 24.7605C406.552 25.4859 407.426 26.0299 408.322 26.3925C409.24 26.7552 410.232 26.9365 411.298 26.9365C412.386 26.9365 413.24 26.7019 413.858 26.2325C414.498 25.7419 414.818 25.0699 414.818 24.2165C414.818 23.6619 414.701 23.2032 414.466 22.8405C414.232 22.4565 413.826 22.1152 413.25 21.8165C412.674 21.5179 411.842 21.1979 410.754 20.8565C408.301 20.1099 406.552 19.1925 405.506 18.1045C404.482 17.0165 403.97 15.6405 403.97 13.9765C403.97 12.6965 404.312 11.5765 404.994 10.6165C405.677 9.63521 406.626 8.88854 407.842 8.37654C409.058 7.8432 410.434 7.57654 411.97 7.57654Z" fill="black"/>
<path d="M442.671 30.2965L441.519 25.5285H435.055L433.935 30.2965H428.495L435.183 8.12054H441.551L448.239 30.2965H442.671ZM435.951 21.7205H440.623L438.287 11.9285L435.951 21.7205Z" fill="black"/>
<path d="M243.009 44.4486V70.7446H237.423V44.4486H243.009Z" fill="black"/>
<path d="M272.989 70.7446H265.807L257.447 49.8826C257.675 51.6812 257.852 53.3786 257.979 54.9746C258.131 56.5452 258.207 58.3946 258.207 60.5226V70.7446H253.153V44.4486H260.183L268.695 65.3486C268.188 61.9539 267.935 58.8379 267.935 56.0006V44.4486H272.989V70.7446Z" fill="black"/>
<path d="M300.538 44.4486L299.93 48.8186H293.28V70.7446H287.694V48.8186H280.702V44.4486H300.538Z" fill="black"/>
<path d="M323.648 44.4486L323.04 48.5146H313.54V55.3546H321.824V59.3826H313.54V66.6406H323.724V70.7446H307.954V44.4486H323.648Z" fill="black"/>
<path d="M341.027 60.4466H338.177V70.7446H332.591V44.4486H340.799C344.32 44.4486 346.967 45.1072 348.741 46.4246C350.514 47.7166 351.401 49.6799 351.401 52.3146C351.401 54.0372 350.97 55.4559 350.109 56.5706C349.273 57.6852 347.968 58.6352 346.195 59.4206L352.997 70.7446H346.651L341.027 60.4466ZM338.177 56.4946H341.103C342.597 56.4946 343.725 56.1652 344.485 55.5066C345.245 54.8226 345.625 53.7586 345.625 52.3146C345.625 50.9719 345.219 49.9966 344.409 49.3886C343.623 48.7552 342.382 48.4386 340.685 48.4386H338.177V56.4946Z" fill="black"/>
<path d="M380.328 70.7446H373.146L364.786 49.8826C365.014 51.6812 365.192 53.3786 365.318 54.9746C365.47 56.5452 365.546 58.3946 365.546 60.5226V70.7446H360.492V44.4486H367.522L376.034 65.3486C375.528 61.9539 375.274 58.8379 375.274 56.0006V44.4486H380.328V70.7446Z" fill="black"/>
<path d="M404.343 70.7446L402.861 64.8546H394.615L393.133 70.7446H387.319L395.413 44.4486H402.215L410.271 70.7446H404.343ZM395.679 60.7126H401.797L398.719 48.5906L395.679 60.7126Z" fill="black"/>
<path d="M432.81 44.4486L432.202 48.8186H425.552V70.7446H419.966V48.8186H412.974V44.4486H432.81Z" fill="black"/>
<path d="M445.813 44.4486V70.7446H440.227V44.4486H445.813Z" fill="black"/>
<path d="M466.331 43.8406C468.738 43.8406 470.815 44.3852 472.563 45.4746C474.311 46.5386 475.654 48.0966 476.591 50.1486C477.528 52.2006 477.997 54.6832 477.997 57.5966C477.997 60.4592 477.528 62.9292 476.591 65.0066C475.654 67.0586 474.311 68.6292 472.563 69.7186C470.815 70.8079 468.738 71.3526 466.331 71.3526C463.924 71.3526 461.834 70.8206 460.061 69.7566C458.313 68.6672 456.97 67.0966 456.033 65.0446C455.096 62.9672 454.627 60.4846 454.627 57.5966C454.627 54.7592 455.096 52.3146 456.033 50.2626C456.996 48.1852 458.351 46.6019 460.099 45.5126C461.872 44.3979 463.95 43.8406 466.331 43.8406ZM466.331 48.0206C464.406 48.0206 462.949 48.7806 461.961 50.3006C460.998 51.8206 460.517 54.2526 460.517 57.5966C460.517 60.9406 461.011 63.3726 461.999 64.8926C462.987 66.4126 464.431 67.1726 466.331 67.1726C468.256 67.1726 469.7 66.4252 470.663 64.9306C471.626 63.4106 472.107 60.9659 472.107 57.5966C472.107 54.2272 471.626 51.7952 470.663 50.3006C469.7 48.7806 468.256 48.0206 466.331 48.0206Z" fill="black"/>
<path d="M506.626 70.7446H499.444L491.084 49.8826C491.312 51.6812 491.49 53.3786 491.616 54.9746C491.768 56.5452 491.844 58.3946 491.844 60.5226V70.7446H486.79V44.4486H493.82L502.332 65.3486C501.826 61.9539 501.572 58.8379 501.572 56.0006V44.4486H506.626V70.7446Z" fill="black"/>
<path d="M530.641 70.7446L529.159 64.8546H520.913L519.431 70.7446H513.617L521.711 44.4486H528.513L536.569 70.7446H530.641ZM521.977 60.7126H528.095L525.017 48.5906L521.977 60.7126Z" fill="black"/>
<path d="M549.145 44.4486V66.2606H559.557L558.949 70.7446H543.559V44.4486H549.145Z" fill="black"/>
<path d="M254.9 158.025C254.9 162.12 253.325 164.43 249.44 164.43C245.03 164.43 243.665 161.49 243.665 156.87V139.65H236V158.025C236 167.37 240.095 172.305 249.545 172.305C259.1 172.305 262.88 167.16 262.88 158.025V145.635C262.88 138.075 261.935 135.45 259.1 131.88C255.845 127.785 249.755 122.745 245.975 117.81C244.4 115.815 244.085 114.765 244.085 111.09V98.28C244.085 94.185 245.975 92.085 249.65 92.085C253.955 92.085 255.11 95.025 255.11 99.33V114.03H262.565V98.28C262.565 88.725 259.1 84 249.755 84C240.515 84 236 88.62 236 98.28V111.195C236 116.97 236.21 119.07 238.835 122.43C241.88 126.315 247.865 131.355 252.275 136.815C254.375 139.44 254.9 140.49 254.9 145.74V158.025Z" fill="black"/>
<path d="M292.55 114.975C292.55 120.33 290.345 122.535 285.725 122.535H280.16V93.03H285.62C290.66 93.03 292.55 95.445 292.55 100.59V114.975ZM280.16 171.36V130.305H285.725C295.805 130.305 300.425 125.685 300.425 114.765V100.59C300.425 89.67 295.7 84.945 285.62 84.945H272.18V171.36H280.16Z" fill="black"/>
<path d="M333.464 171.36L322.229 84.945H312.884L301.019 171.36H308.789L310.679 156.87H323.594L325.484 171.36H333.464ZM311.624 149.52C313.619 134.715 315.509 120.435 317.294 105.21C318.974 120.435 320.864 134.715 322.649 149.52H311.624Z" fill="black"/>
<path d="M358.382 157.605C358.382 162.225 356.912 164.43 353.027 164.43C349.247 164.43 347.357 162.12 347.357 157.605V98.805C347.357 94.29 349.247 92.085 353.027 92.085C357.122 92.085 358.382 94.185 358.382 98.805V114.03H365.627V98.7C365.627 88.935 361.427 84 353.027 84C343.892 84 339.272 88.935 339.272 98.91V157.71C339.272 167.475 343.892 172.305 353.027 172.305C361.847 172.305 365.627 167.58 365.627 157.5V139.65H358.382V157.605Z" fill="black"/>
<path d="M398.344 171.36V163.485H382.909V131.355H393.409V123.375H382.909V93.03H397.819V84.945H374.929V171.36H398.344Z" fill="black"/>
<path d="M453.783 171.36L442.548 84.945H433.203L421.338 171.36H429.108L430.998 156.87H443.913L445.803 171.36H453.783ZM431.943 149.52C433.938 134.715 435.828 120.435 437.613 105.21C439.293 120.435 441.183 134.715 442.968 149.52H431.943Z" fill="black"/>
<path d="M482.129 114.975C482.129 120.33 479.924 122.535 475.304 122.535H469.739V93.03H475.199C480.239 93.03 482.129 95.445 482.129 100.59V114.975ZM469.739 171.36V130.305H475.304C485.384 130.305 490.004 125.685 490.004 114.765V100.59C490.004 89.67 485.279 84.945 475.199 84.945H461.759V171.36H469.739Z" fill="black"/>
<path d="M518.592 114.975C518.592 120.33 516.387 122.535 511.767 122.535H506.202V93.03H511.662C516.702 93.03 518.592 95.445 518.592 100.59V114.975ZM506.202 171.36V130.305H511.767C521.847 130.305 526.467 125.685 526.467 114.765V100.59C526.467 89.67 521.742 84.945 511.662 84.945H498.222V171.36H506.202Z" fill="black"/>
<path d="M553.253 158.025C553.253 162.12 551.678 164.43 547.793 164.43C543.383 164.43 542.018 161.49 542.018 156.87V139.65H534.353V158.025C534.353 167.37 538.448 172.305 547.898 172.305C557.453 172.305 561.233 167.16 561.233 158.025V145.635C561.233 138.075 560.288 135.45 557.453 131.88C554.198 127.785 548.108 122.745 544.328 117.81C542.753 115.815 542.438 114.765 542.438 111.09V98.28C542.438 94.185 544.328 92.085 548.003 92.085C552.308 92.085 553.463 95.025 553.463 99.33V114.03H560.918V98.28C560.918 88.725 557.453 84 548.108 84C538.868 84 534.353 88.62 534.353 98.28V111.195C534.353 116.97 534.563 119.07 537.188 122.43C540.233 126.315 546.218 131.355 550.628 136.815C552.728 139.44 553.253 140.49 553.253 145.74V158.025Z" fill="black"/>
<path d="M247.896 185.294C250.834 185.221 253.692 186.25 255.909 188.179L252.949 191.71C252.245 191.15 251.466 190.691 250.635 190.347C249.853 190.036 249.019 189.882 248.179 189.892C247.343 189.876 246.518 190.072 245.78 190.463C245.042 190.854 244.415 191.427 243.96 192.127C242.953 193.626 242.448 195.93 242.444 199.041C242.44 202.152 242.945 204.43 243.96 205.875C244.431 206.576 245.072 207.146 245.824 207.531C246.576 207.916 247.414 208.102 248.258 208.073C249.16 208.087 250.054 207.907 250.88 207.545C251.777 207.097 252.629 206.562 253.422 205.948L256.197 209.516C255.156 210.55 253.932 211.383 252.587 211.972C251.131 212.619 249.551 212.944 247.958 212.923C245.738 212.976 243.545 212.424 241.615 211.327C239.772 210.213 238.305 208.573 237.403 206.618C236.357 204.241 235.849 201.662 235.917 199.066C235.855 196.504 236.382 193.962 237.458 191.636C238.384 189.685 239.861 188.048 241.707 186.927C243.581 185.825 245.722 185.26 247.896 185.294Z" fill="black"/>
<path d="M289.334 212.254V200.975H281.439V212.254H275.207V185.938H281.439V196.118H289.334V185.938H295.56V212.254H289.334Z" fill="black"/>
<path d="M330.564 212.254L329.201 206.593H321.532L320.2 212.254H313.747L321.679 185.938H329.238L337.17 212.254H330.564ZM322.582 202.074H328.108L325.333 190.457L322.582 202.074Z" fill="black"/>
<path d="M361.54 185.938V207.299H371.794L371.18 212.211H355.345V185.938H361.54Z" fill="black"/>
<path d="M397.219 185.938V207.299H407.466L406.852 212.211H390.993V185.938H397.219Z" fill="black"/>
<path d="M442.808 185.938L442.157 190.384H432.898V196.683H440.984V201.055H432.898V207.772H442.808V212.254H426.672V185.938H442.808Z" fill="black"/>
<path d="M483.141 212.254H475.208L467.613 191.863C467.865 193.865 468.055 195.633 468.184 197.181C468.313 198.728 468.411 200.508 468.411 202.608V212.254H462.885V185.938H470.628L478.413 206.366C477.873 203.119 477.594 199.834 477.578 196.542V185.938H483.159L483.141 212.254Z" fill="black"/>
<path d="M515.646 185.294C518.869 185.236 521.997 186.389 524.413 188.523L521.264 191.827C520.466 191.199 519.583 190.688 518.642 190.31C517.774 189.963 516.844 189.794 515.91 189.813C515.001 189.787 514.1 189.985 513.285 190.389C512.471 190.792 511.767 191.389 511.237 192.128C510.079 193.65 509.497 195.967 509.493 199.078C509.493 202.443 509.935 204.835 510.82 206.255C511.26 206.941 511.877 207.496 512.604 207.863C513.332 208.23 514.145 208.396 514.958 208.343C516.201 208.358 517.429 208.058 518.525 207.471V201.509H515.111L514.497 197.101H524.561V210.124C523.164 211.026 521.641 211.717 520.042 212.174C518.448 212.65 516.793 212.894 515.13 212.899C511.135 212.899 508.122 211.734 506.092 209.405C504.062 207.076 503.051 203.634 503.059 199.078C502.988 196.502 503.546 193.948 504.686 191.636C505.704 189.662 507.274 188.026 509.205 186.927C511.172 185.829 513.393 185.266 515.646 185.294Z" fill="black"/>
<path d="M561.069 185.938L560.455 190.384H551.159V196.683H559.251V201.055H551.159V207.772H561.069V212.254H544.933V185.938H561.069Z" fill="black"/>
</g>
<defs>
<clipPath id="clip0_288_1147">
<rect width="560.841" height="220.501" fill="white" transform="translate(0.45752 0.00134277)"/>
</clipPath>
</defs>
</svg>
